<svg viewBox="0 0 24 24" xmlns="http://www.w3.org/2000/svg"><path d="m0 0h24v24h-24z" fill="none"/><path d="m15.5 2a3.5 3.5 0 0 1 3.437 4.163l-.015.066a4.502 4.502 0 0 1 .303 8.428l-1.086 6.507a1 1 0 0 1 -.986.836h-10.306a1 1 0 0 1 -.986-.836l-1.029-6.17a3 3 0 0 1 -.829-5.824l-.003-.17a6 6 0 0 1 8.574-5.421 3.496 3.496 0 0 1 2.926-1.579zm-6.5 13h-2.14l.834 5h1.306zm4 0h-2v5h2zm4.139 0h-2.139v5h1.305zm-7.139-10c-2.142 0-3.891 1.684-3.995 3.767l-.005.197.003.17a2 2 0 0 1 -1.186 1.863l-.15.059a1.001 1.001 0 0 0 .333 1.944h12.5a2.5 2.5 0 1 0 -.956-4.81l-.175.081a2 2 0 0 1 -2.663-.804l-.07-.137a4 4 0 0 0 -3.636-2.33zm5.5-1a1.5 1.5 0 0 0 -1.287.729 6.006 6.006 0 0 1 1.24 1.764c.444-.228.93-.384 1.446-.453a1.5 1.5 0 0 0 -1.399-2.04z"/></svg>