<svg height="1000" width="1000" xmlns="http://www.w3.org/2000/svg"><path d="m182.594 0c-101.149 0-182.594 81.445-182.594 182.594v634.813c0 101.149 81.445 182.594 182.594 182.594h344.063v-390.938h-103.375v-140.75h103.375v-120.25c0-94.475 61.079-181.219 201.781-181.219 56.968 0 99.094 5.469 99.094 5.469l-3.313 131.438s-42.963-.406-89.844-.406c-50.739 0-58.875 23.378-58.875 62.188v102.781h152.75l-6.656 140.75h-146.094v390.938h141.906c101.149 0 182.594-81.445 182.594-182.594v-634.813c0-101.149-81.445-182.594-182.594-182.594h-634.813z"/></svg>