<svg width="387" height="211" viewBox="0 0 387 211" fill="none" xmlns="http://www.w3.org/2000/svg">
<rect width="387" height="211" fill="#393E41"/>
<g clip-path="url(#clip0_277_105)">
<path d="M208.813 61.75C211.069 61.7498 213.298 62.2484 215.34 63.2102C217.382 64.172 219.185 65.5733 220.622 67.3136C222.059 69.054 223.093 71.0904 223.651 73.2772C224.209 75.464 224.277 77.7471 223.849 79.9631L223.784 80.2519C227.59 81.5215 230.918 83.9233 233.321 87.1359C235.725 90.3485 237.091 94.2186 237.235 98.2284C237.379 102.238 236.295 106.196 234.128 109.573C231.961 112.95 228.815 115.585 225.109 117.124L220.358 145.592C220.188 146.614 219.662 147.542 218.872 148.212C218.082 148.882 217.08 149.25 216.044 149.25H170.956C169.92 149.25 168.918 148.882 168.128 148.212C167.338 147.542 166.812 146.614 166.642 145.592L162.14 118.599C159.112 118.427 156.237 117.212 154.004 115.16C151.771 113.109 150.317 110.347 149.889 107.344C149.462 104.342 150.087 101.284 151.66 98.6908C153.232 96.0975 155.653 94.1285 158.513 93.1188L158.5 92.375C158.499 87.9451 159.619 83.5871 161.756 79.7067C163.893 75.8264 166.978 72.55 170.722 70.1826C174.466 67.8153 178.749 66.434 183.17 66.1674C187.592 65.9009 192.01 66.7577 196.011 68.6581C197.404 66.5344 199.303 64.7909 201.538 63.5848C203.773 62.3788 206.273 61.7482 208.813 61.75V61.75ZM180.375 118.625H171.013L174.661 140.5H180.375V118.625ZM197.875 118.625H189.125V140.5H197.875V118.625ZM215.983 118.625H206.625V140.5H212.334L215.983 118.625ZM184.75 74.875C175.379 74.875 167.727 82.2425 167.272 91.3556L167.25 92.2175L167.263 92.9613C167.294 94.6792 166.818 96.3682 165.896 97.8177C164.973 99.2671 163.644 100.413 162.074 101.112L161.418 101.37C160.447 101.716 159.628 102.394 159.108 103.283C158.587 104.173 158.397 105.219 158.571 106.235C158.745 107.251 159.272 108.174 160.059 108.84C160.847 109.505 161.844 109.872 162.875 109.875H217.563C219.18 109.875 220.777 109.516 222.238 108.825C223.7 108.134 224.991 107.127 226.017 105.877C227.043 104.627 227.779 103.165 228.172 101.596C228.565 100.028 228.605 98.3914 228.29 96.8054C227.975 95.2193 227.312 93.7228 226.349 92.4237C225.386 91.1247 224.147 90.0553 222.721 89.2927C221.295 88.5301 219.717 88.0931 218.102 88.0133C216.487 87.9335 214.874 88.2129 213.38 88.8313L212.614 89.1856C210.596 90.2259 208.251 90.4405 206.077 89.7841C203.903 89.1277 202.07 87.6517 200.964 85.6681L200.658 85.0688C199.259 82.0256 197.017 79.4476 194.198 77.6407C191.378 75.8338 188.099 74.8739 184.75 74.875V74.875ZM208.813 70.5C207.678 70.4998 206.564 70.7934 205.577 71.3524C204.59 71.9114 203.765 72.7165 203.182 73.6894C205.441 75.9136 207.279 78.5282 208.607 81.4069C210.549 80.4094 212.676 79.7269 214.933 79.425C215.317 78.431 215.452 77.3585 215.329 76.3002C215.205 75.2419 214.825 74.2297 214.223 73.351C213.62 72.4723 212.813 71.7535 211.87 71.2568C210.927 70.76 209.878 70.5003 208.813 70.5V70.5Z" fill="white"/>
</g>
<defs>
<clipPath id="clip0_277_105">
<rect width="105" height="105" fill="white" transform="translate(141 53)"/>
</clipPath>
</defs>
</svg>
