<svg width="391" height="67" viewBox="0 0 391 67" fill="none" xmlns="http://www.w3.org/2000/svg">
<path d="M66 32.5C66 41.1195 62.6286 49.386 56.6274 55.481C50.6263 61.5759 42.4869 65 34 65C25.5131 65 17.3738 61.5759 11.3726 55.481C5.37142 49.386 2 41.1195 2 32.5L34 32.5H66Z" fill="#E7BB41" stroke="black" stroke-width="3"/>
<path d="M389 32.5C389 41.1195 385.576 49.386 379.481 55.481C373.386 61.5759 365.12 65 356.5 65C347.88 65 339.614 61.5759 333.519 55.481C327.424 49.386 324 41.1195 324 32.5L356.5 32.5H389Z" fill="#E7BB41" stroke="black" stroke-width="3"/>
<path d="M324 32.5C324 41.1195 320.629 49.386 314.627 55.481C308.626 61.5759 300.487 65 292 65C283.513 65 275.374 61.5759 269.373 55.481C263.371 49.386 260 41.1195 260 32.5L292 32.5H324Z" fill="#E7BB41" stroke="black" stroke-width="3"/>
<path d="M260 32.5C260 41.1195 256.576 49.386 250.481 55.481C244.386 61.5759 236.12 65 227.5 65C218.88 65 210.614 61.5759 204.519 55.481C198.424 49.386 195 41.1195 195 32.5L227.5 32.5H260Z" fill="#E7BB41" stroke="black" stroke-width="3"/>
<path d="M195 32.5C195 41.1195 191.629 49.386 185.627 55.481C179.626 61.5759 171.487 65 163 65C154.513 65 146.374 61.5759 140.373 55.481C134.371 49.386 131 41.1195 131 32.5L163 32.5H195Z" fill="#E7BB41" stroke="black" stroke-width="3"/>
<path d="M131 32.5C131 41.1195 127.576 49.386 121.481 55.481C115.386 61.5759 107.12 65 98.5 65C89.8805 65 81.614 61.5759 75.519 55.481C69.4241 49.386 66 41.1195 66 32.5L98.5 32.5H131Z" fill="#E7BB41" stroke="black" stroke-width="3"/>
</svg>
